<?xml version="1.0" encoding="UTF-8" standalone="no"?>
<!-- Created with Inkscape (http://www.inkscape.org/) -->
<svg
   xmlns:svg="http://www.w3.org/2000/svg"
   xmlns="http://www.w3.org/2000/svg"
   version="1.0"
   width="708.66144"
   height="195.46791"
   id="svg2219">
  <defs
     id="defs2221" />
  <g
     transform="translate(-256.19951,-322.66808)"
     id="layer1">
    <g
       transform="matrix(3.4135741,0,0,3.4135741,-618.35647,-1250.5597)"
       id="g2236">
      <g
         transform="matrix(1.2498363,0,0,-1.2498363,255.95273,518.94646)"
         id="q1">
<g
   transform="scale(0.1,0.1)"
   id="xfrm2">
<path
   d="M 70.59,404.19 C 101.29,431.53 153.59,459.84 226.03,459.84 C 274,459.84 307.58,447.84 321.97,442.09 C 311.42,418.1 305.18,393.16 298.46,367.73 C 295.11,362.45 282.15,362.45 280.23,367.73 C 284.55,416.66 266.32,437.77 221.7,437.77 C 139.67,437.77 74.906,338.94 74.906,250.19 C 74.906,171.99 114.24,149.93 149.75,149.93 C 189.56,149.93 217.39,174.4 250.49,218.53 C 255.77,222.36 266.8,220.93 268.24,215.66 C 259.13,186.87 241.86,152.32 234.18,139.86 C 215.95,137.93 190.04,127.86 148.31,127.86 C 49.961,127.86 1.0273,182.07 1.9883,254.04 C 1.9883,316.4 34.609,372.05 70.59,404.19 L 70.59,404.19"
   id="path14"
   style="fill:#091a38;fill-rule:nonzero;stroke:none" />

<path
   d="M 391.23,104.2 C 408.43,130.08 425.84,159.8 442.06,188.79 C 474.68,247.32 490.99,304.41 490.99,312.56 C 490.51,327.91 475.16,334.15 460.77,334.15 C 452.13,334.15 445.9,329.35 444.46,314 C 443.5,307.76 441.58,295.29 439.66,284.74 C 431.98,237.24 418.55,192.63 396.01,148.97 L 394.57,148.97 C 398.4,184.95 399.36,213.25 398.4,247.32 C 397.44,313.04 380.66,334.15 355.7,334.15 C 313.97,334.15 291.42,282.82 282.31,256.43 C 284.22,251.15 293.82,248.75 298.14,252.59 C 304.86,267.94 318.77,291.45 328.36,291.45 C 341.31,291.45 345.63,254.51 347.07,196.47 C 348.36,149 345.82,122.9 342.54,104.2 C 342.14,101.91 341.73,99.727 341.31,97.637 C 337.48,77.969 329.8,62.617 321.16,52.539 C 313.97,44.387 303.57,40.684 298.28,40.684 C 290.09,40.684 289.84,42.383 279.91,56.379 C 276.41,61.309 274.53,69.434 256.41,68.809 C 243.29,68.359 229.59,57.383 230.02,39.199 C 230.02,39.172 230.02,39.141 230.02,39.113 C 230.49,18 249.2,6.4844 266.95,6.4844 C 286.86,6.4844 311.44,15.168 338.19,39.199 C 342.38,42.961 346.62,47.031 350.91,51.582 C 363.73,65.051 377.42,83.391 391.23,104.2 L 391.23,104.2"
   id="path16"
   style="fill:#091a38;fill-rule:nonzero;stroke:none" />

<path
   d="M 596.51,135.54 L 519.75,135.54 L 519.75,464.64 L 643.52,464.64 C 675.66,464.64 704.93,464.64 732.28,445.92 C 760.1,426.26 774.97,397.95 774.97,363.89 C 774.97,332.71 763.94,301.05 739.47,280.41 C 711.17,256.91 680.94,257.39 645.92,257.39 L 596.51,257.39 L 596.51,135.54 z M 639.68,317.36 C 657.91,317.36 673.27,317.36 686.7,331.75 C 693.9,339.9 697.25,350.46 697.25,361.01 C 697.25,373.96 691.97,387.4 681.42,395.56 C 669.43,404.67 653.59,404.67 639.2,404.67 L 596.51,404.67 L 596.51,317.36 L 639.68,317.36 L 639.68,317.36"
   id="path18"
   style="fill:#091a38;fill-rule:nonzero;stroke:none" />

<path
   d="M 870.23,379.24 L 870.23,333.67 L 871.19,333.67 C 878.39,359.57 892.79,386.44 923.49,384.04 L 935.48,383.08 L 935.48,312.56 C 881.75,315.44 875.03,271.78 875.03,228.6 L 875.03,135.54 L 804.51,135.54 L 804.51,379.24 L 870.23,379.24 L 870.23,379.24"
   id="path20"
   style="fill:#091a38;fill-rule:nonzero;stroke:none" />

<path
   d="M 1027.6,245.4 L 1027.1,233.4 C 1027.1,204.62 1043.4,181.11 1074.1,181.11 C 1095.7,181.11 1117.3,196.94 1117.3,219.49 L 1182.6,214.69 C 1182.6,202.69 1154.3,130.74 1071.7,130.74 C 998.82,130.74 951.33,181.59 951.33,254.04 C 951.33,325.99 994.02,384.04 1069.8,384.04 C 1103.9,384.04 1138.9,368.69 1159.1,340.86 C 1179.2,313.04 1184.5,278.5 1184,245.4 L 1027.6,245.4 L 1027.6,245.4 z M 1113.5,287.13 C 1112,313.52 1103.4,337.98 1072.7,337.98 C 1041.5,337.98 1029.5,314.96 1027.1,287.13 L 1113.5,287.13 L 1113.5,287.13"
   id="path22"
   style="fill:#091a38;fill-rule:nonzero;stroke:none" />

<path
   d="M 1360.6,306.32 C 1354.3,329.35 1336.1,338.94 1313.1,338.94 C 1298.7,338.94 1276.6,335.11 1276.6,317.36 C 1276.6,271.78 1423,323.59 1423,213.73 C 1423,188.31 1411,165.76 1390.3,150.89 C 1368.3,135.54 1341.4,130.74 1314.5,130.74 C 1263.7,130.74 1216.2,148.01 1203.2,202.69 L 1264.2,211.34 C 1269,186.39 1295.3,178.71 1317.9,178.71 C 1331.3,178.71 1360.6,183.52 1360.6,201.74 C 1360.6,218.05 1346.2,220.93 1333.2,222.36 C 1316.5,224.29 1276.1,231.48 1260.8,236.76 C 1232,246.84 1212.8,271.78 1212.8,302.48 C 1212.8,362.45 1265.1,384.04 1316.9,384.04 C 1364.9,384.04 1396.1,365.81 1412.9,320.23 L 1360.6,306.32 L 1360.6,306.32"
   id="path24"
   style="fill:#091a38;fill-rule:nonzero;stroke:none" />

<path
   d="M 1600.6,306.32 C 1594.3,329.35 1576.1,338.94 1553.1,338.94 C 1538.7,338.94 1516.6,335.11 1516.6,317.36 C 1516.6,271.78 1663,323.59 1663,213.73 C 1663,188.31 1651,165.76 1630.3,150.89 C 1608.3,135.54 1581.4,130.74 1554.5,130.74 C 1503.7,130.74 1456.2,148.01 1443.2,202.69 L 1504.2,211.34 C 1509,186.39 1535.3,178.71 1557.9,178.71 C 1571.3,178.71 1600.6,183.52 1600.6,201.74 C 1600.6,218.05 1586.2,220.93 1573.2,222.36 C 1556.5,224.29 1516.1,231.48 1500.8,236.76 C 1472,246.84 1452.8,271.78 1452.8,302.48 C 1452.8,362.45 1505.1,384.04 1556.9,384.04 C 1604.9,384.04 1636.1,365.81 1652.9,320.23 L 1600.6,306.32 L 1600.6,306.32"
   id="path26"
   style="fill:#091a38;fill-rule:nonzero;stroke:none" />

</g>

</g>
    </g>
  </g>
</svg>
